<?xml version="1.0" encoding="utf-8"?>
<!-- Generator: Adobe Illustrator 25.0.0, SVG Export Plug-In . SVG Version: 6.00 Build 0)  -->
<svg version="1.1" id="Layer_1" xmlns="http://www.w3.org/2000/svg" xmlns:xlink="http://www.w3.org/1999/xlink" x="0px" y="0px"
	 viewBox="0 0 145.9 24.3" style="enable-background:new 0 0 145.9 24.3;" xml:space="preserve" height="26px" width="156px">
<style type="text/css">
	.st0{fill:#FFFFFF;}
</style>
<path class="st0" d="M0,23.4h2.6V1.3H0V0.8h9.2c5.4,0,8.3,2.1,8.3,5.5c0,2.9-2.4,5.1-6.5,5.4c4.7,0.5,7.2,2.6,7.2,6
	c0,3.6-3,6.3-7.8,6.3H0V23.4z M7.5,11.4c4.5,0,6.6-1.4,6.6-4.7c0-3.2-2.2-5.3-6.2-5.3H6.1v10C6.6,11.4,7.1,11.4,7.5,11.4z M7.6,23.4
	c4.6,0,6.9-1.8,6.9-5.9c0-3.8-2.5-5.7-7.5-5.7c-0.3,0-0.6,0-0.9,0v11.6L7.6,23.4L7.6,23.4z"/>
<path class="st0" d="M21.8,11.8c1.3-1.4,2.9-2.1,4.7-2.1c3.6,0,6.8,3.4,6.8,7.4c0,1.9-0.7,3.7-2.1,5.2c-1.3,1.4-2.9,2.1-4.7,2.1
	c-1.8,0-3.4-0.7-4.7-2.1c-1.4-1.5-2.1-3.3-2.1-5.2C19.6,15.1,20.4,13.2,21.8,11.8z M26.5,23.8c2.5,0,3.6-1.5,3.6-4.7v-4.2
	c0-3.2-1.1-4.7-3.6-4.7s-3.7,1.5-3.7,4.7v4.2C22.8,22.3,23.9,23.8,26.5,23.8z"/>
<path class="st0" d="M46.1,24.2c-1.5,0-2.5-0.8-2.8-2.2c-0.9,1.5-2.6,2.3-5,2.3c-2.3,0-4-1.5-4-3.5c0-2.9,3-4.7,8.7-4.7
	c0.1,0,0.1,0,0.2,0v-3.5c0-1.7-0.7-2.5-2.7-2.5c-1.9,0-3,1.2-3,1.7c0,0.3,1,0.6,1,1.5c0,1-0.6,1.6-1.5,1.6c-1,0-1.6-0.7-1.6-1.6
	c0-2,2.1-3.7,5.2-3.7c1.5,0,2.8,0.4,3.9,1.2c1.3,1,1.4,1.8,1.4,3.4v7c0,1.5,0.4,2.2,1.1,2.2c0.6,0,1.1-0.5,1.8-1.3l0.4,0.4
	C48.2,23.6,47.3,24.2,46.1,24.2z M43.2,16.7c-0.4,0-0.7,0-1.1,0c-3.2,0-4.8,1.2-4.8,3.9c0,2,0.9,3.1,2.5,3.1c1.3,0,2.7-0.8,3.4-2.2
	V16.7z"/>
<path class="st0" d="M48.5,23.4h2V10.5h-2V10h1.7c1.5,0,2.6-0.1,3.3-0.4v3.6c1-2.5,2.2-3.6,3.9-3.6c1.4,0,2.2,0.8,2.2,1.8
	s-0.6,1.7-1.4,1.7c-0.8,0-1.6-0.7-1.6-1.5c0-0.5,0.2-0.9,0.7-1.4c-0.1,0-0.3-0.1-0.4-0.1c-1.3,0-2.7,1.8-3.4,5v8.2h1.9v0.5h-6.9
	L48.5,23.4L48.5,23.4z"/>
<path class="st0" d="M66.1,24.3c-3.9,0-6.7-2.9-6.7-7.4c0-4.1,3-7.3,6.3-7.3c2,0,3.7,1.1,4.7,3.2V1.3h-2V0.8h1.7
	c1.2,0,2.2-0.2,3.3-0.8v23.4h2v0.5h-4.9v-2.3C69.3,23.4,67.9,24.3,66.1,24.3z M65.9,23.8c2,0,3.6-1.2,4.5-3.5v-6.2
	c-0.9-2.5-2.6-3.9-4.4-3.9c-2.2,0-3.4,1.6-3.4,4.7v4C62.6,22.3,63.5,23.8,65.9,23.8z"/>
<path class="st0" d="M75.4,23.4H78V1.3h-2.6V0.8h9.7c5.4,0,8.1,1.9,8.1,5.5c0,3.2-2.2,5-6.5,5.5c4.1,0.6,5.5,2.1,5.9,5.9
	c0.4,3.6,0.2,5.7,2.2,5.7c0.5,0,0.8-0.1,1.3-0.2l0.2,0.5c-1.1,0.4-2.1,0.5-3.1,0.5c-1.4,0-2.5-0.5-3.2-1.6c-1-1.6-0.9-3.8-1.3-6.5
	c-0.4-3-1.9-3.9-5.8-3.9h-1.2v11.3h2.5v0.5h-8.6L75.4,23.4L75.4,23.4z M81.6,11.7h1.2c4.6,0,6.9-1.6,6.9-5c0-3.8-1.8-5.3-5.6-5.3
	h-2.4V11.7L81.6,11.7z"/>
<path class="st0" d="M113.5,9.6c-1.8,0-3.4,0.7-4.7,2.1c-0.5,0.5-0.9,1.1-1.2,1.6c-1.2-2.2-3.4-3.7-5.9-3.7c-1.8,0-3.4,0.7-4.7,2.1
	c-1.4,1.5-2.1,3.3-2.1,5.2c0,1.9,0.7,3.8,2.1,5.2c1.3,1.4,2.9,2.1,4.7,2.1c1.8,0,3.4-0.7,4.7-2.1c0.5-0.5,0.9-1.1,1.2-1.6
	c0.3,0.6,0.7,1.1,1.2,1.6c1.3,1.4,2.9,2.1,4.7,2.1c1.8,0,3.4-0.7,4.7-2.1c1.4-1.5,2.1-3.3,2.1-5.2C120.3,13,117.2,9.6,113.5,9.6z
	 M105.4,19.1c0,3.2-1.1,4.7-3.6,4.7c-2.5,0-3.7-1.5-3.7-4.7v-4.2c0-3.2,1.2-4.7,3.7-4.7s3.6,1.5,3.6,4.7V19.1z M117.2,19.1
	c0,3.2-1.1,4.7-3.6,4.7c-2.5,0-3.7-1.5-3.7-4.7v-4.2c0-3.2,1.2-4.7,3.7-4.7s3.6,1.5,3.6,4.7V19.1z"/>
<path class="st0" d="M120.1,10.5V10h1.7c1.5,0,2.6-0.1,3.3-0.4v3.1c1.3-2.1,2.9-3.1,4.9-3.1c2.3,0,4,1.3,4.3,3.3
	c1.4-2.2,3-3.3,5.1-3.3c2.7,0,4.4,1.6,4.4,4.3v9.5h2v0.5H139v-0.5h2V13c0-1.9-0.4-2.7-1.9-2.7c-1.8,0-3.2,1.1-4.6,3.4v9.7h2v0.5
	h-6.9v-0.5h2V13c0-1.9-0.4-2.7-1.9-2.7c-1.8,0-3.3,1.1-4.6,3.4v9.7h1.9v0.5h-6.9v-0.5h2V10.5H120.1z"/>
</svg>
