<?xml version="1.0" encoding="utf-8"?>
<!-- Generator: Adobe Illustrator 25.0.0, SVG Export Plug-In . SVG Version: 6.00 Build 0)  -->
<svg version="1.1" id="layer" xmlns="http://www.w3.org/2000/svg" xmlns:xlink="http://www.w3.org/1999/xlink" x="0px" y="0px"
	 viewBox="0 0 47.5 47.5" style="enable-background:new 0 0 47.5 47.5;" xml:space="preserve" height="50px" width="50px">
<style type="text/css">
	.st0{fill:#FFFFFF;}
</style>
<g>
	<path class="st0" d="M23.8,0C10.7,0,0,10.7,0,23.8c0,13.1,10.6,23.8,23.8,23.8s23.8-10.6,23.8-23.8C47.5,10.7,36.9,0,23.8,0z
		 M23.8,27.7c1.1,0,2-0.4,2.6-1.1h-1.6v-2.1h5v5.2h-2.1v-1.2c-1,0.9-2.3,1.5-3.9,1.5c-3.4,0-6.2-2.8-6.2-6.2s2.8-6.2,6.2-6.2
		c2.9,0,5.4,2.1,6,4.8h-2.4c-0.6-1.5-2-2.5-3.7-2.5c-2.1,0-3.9,1.7-3.9,3.9S21.6,27.7,23.8,27.7z M37.6,29.6l-2.4-3.9h-1.4v3.9h-2.3
		V17.9h4.6c2.1,0,3.9,1.7,3.9,3.9c0,1.6-0.9,2.9-2.3,3.5l2.6,4.3H37.6z M42.1,29.6V17.9h2.3v11.7H42.1z"/>
	<path class="st0" d="M36.1,20.2h-2.3v3.2h2.3c0.9,0,1.6-0.7,1.6-1.6C37.7,20.9,37,20.2,36.1,20.2z"/>
</g>
</svg>
