<svg version="1.1" id="Layer_1" xmlns="http://www.w3.org/2000/svg" xmlns:xlink="http://www.w3.org/1999/xlink" x="0px" y="0px"
	 viewBox="0 0 344.4 39.5" style="enable-background:new 0 0 344.4 39.5;" xml:space="preserve" height="26px" width="224px">
<style type="text/css">
	.st0{fill:#FFFFFF;}
</style>
<g>
	<path class="st0" d="M37.9,9.4c1.7,3.3,2.2,7.8,1.1,11.5c-1.1,4.4-4.8,8.8-9.1,10.6c-4.8,2.4-11.7,1.8-16-1.3
		c-6-4.1-8.4-11.2-6.6-18.1C8.4,8,11.7,3.8,15.7,1.8C18,0.7,20.4,0.1,23.2,0C29.3,0.1,35.2,3.7,37.9,9.4 M23.5,0.9
		c0.1,0.6,0.1,1.5,0,2.3c0-0.1,0-0.1,0.1-0.2s0.2,0,0.3,0.1c0,0.1,0.1,0.3,0,0.4c0.1,0,0.1-0.1,0.2-0.1C26,3.5,27.7,4.1,29.3,5l0,0
		c0.3-0.2,0.7-0.4,1.1-0.1c0.4-0.1,0.5,0.3,0.8,0.4C31.6,5.5,32,6,32.1,6.4c0.1,0.1,0.3,0.3,0.3,0.4c0.3-0.6,0.8-1,1.2-1.4l0.3-0.1
		c-2.5-2.4-5.4-3.7-8.7-4.1C24.5,1,24,1,23.5,0.9 M22.5,1c-3.3,0.1-6.2,1.3-8.8,3.1c-0.5,0.3-0.9,0.9-1.5,1.2h0.1
		c0.6,0.5,1.3,1.2,1.8,1.7V6.9c2.4-2.2,5.2-3.4,8.4-3.5l-0.1-0.2v-2L22.5,1z M25.4,2.2l-1.2,0.5c-0.1,0-0.3-0.1-0.4,0v0.1
		C24.2,3.4,25,3,25.5,2.9c0.4,0.2,0.8,0,1.1-0.3V2.5C26.4,2.3,25.8,2.2,25.4,2.2 M23.4,4.2l0.1,0.2c0,0.8,0,1.6,0,2.3
		c0.3-0.1,0.6,0,0.9,0C26,7,27.5,7.5,28.8,8.5c-0.2-0.2-0.3-0.4-0.4-0.6h0.1c0-0.3-0.3-0.4-0.3-0.6c0,0,0.1-0.1,0.2-0.1
		c0.3,0.3,0.5,0.5,0.7,0.8c0.2-0.1,0.3,0,0.5,0.1s0.1,0.4,0.3,0.6c0,0.5,0.6,0.8,0.6,1.2c0,0.1,0.1,0,0.2,0.1l0.5,0.6
		c-0.1,0.1,0,0.3,0.1,0.3c0.2,0.1,0.3-0.2,0.6-0.1c0.3,0.2,0,0.4,0,0.6c0.1,0,0.3-0.1,0.4,0c0,0.2-0.1,0.3-0.2,0.4
		c0,0.2,0.1,0.1,0.3,0.2c0.1,0,0.2,0.2,0.2,0.3c0.4,0.4-0.1,0.9,0.1,1.3c0.1,0.3,0,0.6-0.2,0.8c0,0.4-0.3,0.6-0.4,0.9l-0.4,0.1
		c-0.2,0.2,0.2,0.5,0,0.6h0.9l-0.1-0.1c-0.1-0.4-0.1-0.8,0.1-1.2c0.1-0.3,0.2-0.6,0.4-0.9c0.1,0,0.2-0.1,0.2,0c0,0.3,0,0.6-0.1,0.8
		c0.3,0.4,0.2,0.9,0.3,1.3c0.8,0,1.6-0.1,2.4-0.1l-0.1-0.2c-0.1-1.5-0.4-2.9-1.1-4.2c-0.2,0-0.3,0.1-0.5,0.1c-0.1,0-0.1-0.1-0.1-0.2
		c-0.3-0.3-0.5-0.7-0.9-1c-0.4,0-0.6-0.4-1-0.5c-0.3-0.1-0.1-0.7-0.6-0.5C31.3,9.2,31,9,31,8.8c0-0.4-0.1-0.9-0.5-1.2
		c-0.3-0.1-0.4,0.3-0.7,0.2c-0.2-0.1-0.1-0.3-0.1-0.4c-0.1-0.1-0.2-0.2-0.2-0.4c0.4-0.5-0.5-0.5-0.3-1c0-0.4-0.4-0.5-0.6-0.8
		c-1.3-0.6-2.5-1-4-1.1C24.1,4.3,23.7,4.4,23.4,4.2 M30.9,4.2c-0.2,0.2-0.3-0.1-0.5,0c0,0.1,0,0.2,0.1,0.2c0.3,0.1,0.4,0.6,0.8,0.5
		c0.1-0.1-0.1-0.3,0-0.5C31.2,4.4,31,4.3,30.9,4.2 M16.2,6.4c-0.5,0.4-1,0.8-1.5,1.1c0.6,0.4,1.1,1,1.7,1.5l0.1,0.2
		c1.4-1.3,3.1-2.1,4.9-2.5c0.4,0,0.9-0.2,1.3-0.1c0-0.8-0.1-1.6,0-2.4C20.2,4.4,18.1,5.2,16.2,6.4 M34.4,5.7
		c-0.4,0.6-1.1,1.2-1.6,1.8l-0.3,0.1c0.2,0,0.2,0.2,0.3,0.4c0.6,0.3,0.8,1,1.3,1.3c0.3,0.6,1,1.1,1,1.8c0.7,1.6,1.2,3.2,1.2,5.1
		l-0.1,0.1c0.1,0,0.1,0,0.2-0.1h2.4c-0.2-0.2-0.1-0.6-0.1-0.8C38.4,11.6,36.8,8.4,34.4,5.7 M11.8,5.7C9.5,8.3,8,11.3,7.6,14.6
		c-0.1,0.5,0,1-0.1,1.5c0.8-0.1,1.7-0.1,2.5,0l-0.1-0.3c0.2-2.6,1-4.9,2.5-7c0.4-0.4,0.6-0.9,1.1-1.3C13,7,12.4,6.4,11.9,5.9
		L11.8,5.7z M22.6,7.5l-0.1,0.1c-2.1,0.1-3.9,1-5.5,2.3c0.6,0.4,1.2,1.1,1.7,1.6c0-0.1,0.1-0.1,0.1-0.2c0.8-0.6,1.6-1.1,2.5-1.3
		c0.4,0,0.8-0.2,1.2-0.1C22.5,9.1,22.5,8.3,22.6,7.5 M23.5,7.5l0.1,0.2v2.2h0.2c1.4,0.2,2.6,0.6,3.7,1.5l0.1,0.2
		c0.4-0.5,0.9-1,1.4-1.4l0.4-0.2l-0.2-0.1c-0.9-0.8-1.9-1.3-2.9-1.7C25.3,7.7,24.4,7.6,23.5,7.5 M14.1,8.1v0.2l-0.9,1.1
		c-1.4,2-2.1,4.3-2.3,6.8h2.2l0.2,0.1c-0.1-0.1-0.1-0.2-0.1-0.2c0.2-2.3,1-4.4,2.6-6.1C15.2,9.3,14.6,8.7,14.1,8.1 M29.7,10.4
		L29.7,10.4c-0.8,0.9-1.6,1.7-2.3,2.5c0,0.1,0.1,0.2,0.2,0.2c0-0.2,0.1-0.4,0.2-0.6c0.2-0.3,0.5-0.1,0.7,0c0.4-0.1,0.8,0.1,1.2,0.1
		c0.3,0.1,0.3,0.5,0.6,0.7c0.1,0.1,0,0.2-0.1,0.3c0.1,0.6,0.4-0.2,0.7,0c0.1,0,0.3,0,0.4,0.2c0.1,0.3,0.4,0.2,0.4,0.5
		c0,0.1-0.2,0.2-0.2,0.2c0.1,0.2-0.3,0.4-0.1,0.7c0.5,0.1,0.5-0.5,0.7-0.7c-0.1-0.4-0.2-0.9-0.5-1.2c-0.3-0.1-0.4-0.4-0.7-0.4
		c-0.5-0.2,0.1-0.5,0-0.8C30.6,11.3,30.1,10.8,29.7,10.4 M16.4,10.4c-1.1,1.4-1.9,2.8-2.2,4.5c-0.1,0.4,0,0.9-0.2,1.2
		c0.3-0.1,0.7-0.1,1,0c-0.2-0.1,0-0.3-0.1-0.5c0-0.2-0.1-0.5,0.1-0.6c0-0.3,0.3-0.5,0.4-0.8c0.1-0.3,0.5-0.1,0.7-0.3
		c0.1-0.1,0-0.2,0-0.3c0.2-0.2,0.4-0.2,0.6-0.3c0.1-0.2,0.3-0.4,0.6-0.6c0.5,0,0.5-0.7,1-0.7C17.6,11.7,17,11,16.4,10.4 M23.5,10.7
		c0.2,0.5,0,1.2,0.1,1.7l0.6,0.2c0.2-0.3,0.5-0.3,0.7-0.6c0.1-0.1,0.2,0,0.3,0.1c0,0.2,0,0.4-0.1,0.7c-0.2,0.4-0.7,0.5-1,0.8
		c0.2,0.1,0.3-0.1,0.4-0.1c0.2,0,0.4,0.2,0.5,0.4c0.1,0.1,0.3,0,0.4-0.1c0.1-0.7,0.9-0.6,1.2-1.2l-0.2,0.1c-0.1-0.1-0.2,0-0.2-0.2
		c0.1-0.1,0.3-0.3,0.5-0.4c-0.7-0.5-1.5-0.9-2.3-1.1C24.1,10.8,23.8,10.8,23.5,10.7 M19.1,12.4h0.2c0.2,0.2,0.5,0.2,0.7,0.4
		c0.1,0.1-0.1,0.1-0.1,0.3l0.1,0.1c0.2,0.1,0.1-0.1,0.2-0.2c0.2-0.2,0.2,0.2,0.4,0.2c0.1-0.1,0.3-0.1,0.4,0.1c0.1-0.1,0.4,0,0.4-0.2
		c0.3-0.3,0.1-0.7,0.5-0.9c0.1,0.1,0,0.2,0,0.3c0.3,0.1,0.5-0.2,0.7,0c-0.2-0.5-0.1-1.2-0.1-1.8C21.3,11,20,11.4,19.1,12.4
		 M23.1,13.8c-0.1-0.1-0.4-0.1-0.6,0c0.2,0.2,0.1,0.5,0.2,0.7c-0.2,0.4-0.7,0.5-1,0.6c-0.1,0.1-0.1,0.4-0.3,0.4
		c-0.1,0.2-0.4,0.3-0.3,0.5C21,16.3,21,16.6,21,16.9c-0.5,0.3-0.3-0.4-0.6-0.5l-0.1,0.1c-0.1,0-0.2,0-0.2-0.1c-0.1,0-0.2,0-0.3,0
		c-0.1,0.2-0.3,0.3-0.2,0.6c-0.1,0.1-0.3,0.1-0.3,0.3c0.3,0,0.6-0.1,0.8-0.1s0.3-0.1,0.5-0.1c0.1,0,0.1,0.1,0.1,0.2h0.1
		c0.1-0.1,0.2-0.2,0.1-0.4c0-0.2,0.2-0.2,0.3-0.2s0,0.2,0.1,0.2c0.4,0.1-0.1,0.4-0.1,0.6c-0.1,0.2,0,0.5-0.3,0.5
		c-0.1,0-0.1-0.1-0.1-0.1l0,0c0,0.1,0.1,0.3,0.2,0.4c0.2-0.2,0.2-0.5,0.6-0.6c0.2-0.2-0.1-0.5,0.2-0.6c0.4,0,0.9-0.2,1.2,0.2
		c0,0.1-0.1,0.2,0,0.3c-0.1,0.2-0.1,0.4-0.3,0.5c0,0.1,0,0.2-0.1,0.3c-0.1,0.5-0.7,0.3-1,0.4c0.5,0.4,1.1,0.5,1.8,0.5
		c0.4,0,0.2-0.5,0.4-0.6c0.1-0.6,0.6-0.2,1-0.3c0.1-0.2,0.2-0.5,0.3-0.8c-0.2-0.1-0.3-0.4-0.2-0.6c-0.1-0.2-0.1-0.5-0.4-0.6
		c0-0.1,0-0.1,0-0.2c0-0.2,0.2-0.2,0.2-0.4c-0.2-0.1-0.1-0.4-0.1-0.5c-0.3,0.1-0.4-0.3-0.6-0.4c-0.1-0.2-0.3-0.2-0.4-0.3
		c-0.4,0.2-0.5-0.3-0.8-0.4c0-0.1-0.1-0.2,0-0.3c0.1-0.1,0.3,0,0.5,0L23.1,13.8z M15.9,15.8c-0.7,0.2,0.1,0.7-0.1,1.1
		c-0.1,0.2-0.3,0-0.5,0.1l-0.1,0.4c-0.1,0.3-0.4,0.1-0.6,0.2c-0.1,0.2,0,0.3,0.1,0.5c-0.2,0.5,0.5,0.7,0.5,1.2c0.2,0.3,0,0.7,0.3,1
		c0.1,0.5-0.1,1.3,0.4,1.7l0.1,0.5c0.1,0.4-0.4,0.3-0.4,0.6c0.1,0,0.1,0.1,0.1,0.1l0,0c0.6-0.7,1.4-1.5,2.1-2.1l-0.3-0.3
		c-0.6-0.9-1-1.8-1.3-2.8L16,17.9c0,0.3-0.1,0.5-0.1,0.7l-0.1,0.1c-0.2,0-0.3-0.1-0.4-0.2c0-0.1-0.1-0.2,0-0.3c0.1,0,0.1,0,0.2,0.1
		c0.1-0.1,0-0.2,0.1-0.3c0-0.2-0.1-0.4,0-0.5c0.2,0,0.3,0.2,0.3,0.3c0.2,0,0.3-0.1,0.4-0.1c0-0.1,0.2-0.3,0-0.4c0.1-0.3,0-0.7,0-1
		C16.5,15.7,16.2,15.8,15.9,15.8 M31.3,16.1c-0.1,0-0.2,0-0.2,0S31.2,16.1,31.3,16.1 M30.8,16.9l0.3,0.3c0.3,0.2,0.1,0.5,0.4,0.7
		c0.3,0.2,0.4,0.5,0.6,0.8c0-0.1,0-0.2,0.1-0.2c0.1-0.4,0.1-1,0.2-1.4C31.8,17,31.2,17.1,30.8,16.9 M36.4,17l-0.1-0.1l0.1,0.2
		c-0.1,2.7-1,5.1-2.6,7.3c-0.3,0.4-0.6,0.8-1,1.1c0.6,0.5,1.3,1.2,1.8,1.8l0.1-0.1c2.5-2.9,3.9-6.2,4.1-10l0.1-0.2l-0.1,0.1L36.4,17
		z M33.1,16.9c0.1,0.5-0.1,1-0.1,1.5l0.3,0.3c0.1,0.1,0,0.3-0.1,0.4s-0.3,0.1-0.4,0c-0.3,1.1-0.7,2.2-1.4,3.1
		c-0.3,0.3-0.5,0.8-0.9,1l0.7,0.7v-0.2c0-0.1,0-0.2,0.2-0.2c0.4,0,0.4,0.4,0.6,0.6c0,0.3,0.2,0.6,0.1,0.8c2.1-2.2,3.1-4.8,3.3-7.8
		l0.1-0.1c-0.7,0.1-1.5,0-2.3,0L33.1,16.9z M14,17l0.1,0.2c0,0.5,0.2,1.1,0.1,1.6c0.1-0.2,0.1-0.4,0.3-0.5c0-0.1-0.2-0.2-0.2-0.3
		c0.2-0.3,0-0.8,0.4-0.9C14.5,17.1,14.2,17.2,14,17 M10,17l-0.2,0.1H7.5c0.1,2.6,0.8,5,2,7.2c0.6,1.1,1.4,2.1,2.2,3.1l1.6-1.7
		l0.2-0.1c-0.3-0.2-0.5-0.5-0.8-0.8c-0.3-0.1-0.5-0.3-0.7-0.5c-0.1-0.1,0-0.3-0.1-0.3l-0.1,0.1c-0.3,0.1-0.4-0.2-0.6-0.3
		c-0.3-0.1-0.1-0.6-0.5-0.5c-0.1,0-0.2-0.2-0.3-0.2c-0.3,0-0.4-0.3-0.6-0.5c0,0.1,0,0.2-0.1,0.2c-0.3,0.1-0.4-0.3-0.7-0.5
		c-0.1,0-0.1,0.1-0.2,0.1c-0.2-0.2-0.3-0.4-0.3-0.7c-0.3-0.3-0.1-0.8-0.1-1.2c0-0.1,0.2-0.2,0.2-0.3C8.7,20,8.9,20,9,20
		c0.1,0,0.1,0.1,0.2,0.2c0.1-0.1,0.3,0,0.3-0.2c0.1-0.1,0.3-0.2,0.5-0.2c0.1,0.2,0.2,0.4,0.4,0.5l-0.1-0.2c-0.2-0.8-0.4-1.6-0.4-2.5
		c0,0-0.1-0.1,0-0.1l0,0C10,17.3,10,17.1,10,17 M13.2,17L13,17.1c-0.8,0-1.6,0.1-2.3-0.1l0.1,0.1l0.2,1.5c0.1,0.6,0.3,1.1,0.3,1.7
		c0.1-0.1,0-0.4,0.3-0.4c-0.1-0.2,0.2-0.3,0-0.5c0.1-0.4,0.1-0.8,0.5-1.1c0.4,0,0.4-0.6,0.9-0.6c0.2,0,0.3,0.3,0.4,0.4
		C13.1,17.9,13.2,17.4,13.2,17 M17.4,18c0.2,0.4,0.4,0.9,0.6,1.3c0.1,0.4,0.5,0.7,0.6,1c0.2-0.3,0.5-0.5,0.7-0.8
		c0-0.1,0-0.2-0.1-0.3c-0.1-0.2,0-0.4-0.1-0.6c-0.2,0.1,0.1,0.3,0,0.4s-0.2,0-0.2-0.1c-0.2,0-0.3-0.2-0.4-0.4c0.2-0.1,0-0.1-0.1-0.2
		c-0.1,0-0.1,0-0.2,0h-0.1C18.2,18,17.6,18.3,17.4,18 M20,18.7c-0.1,0.2-0.2,0.4-0.3,0.5l0,0c0.2-0.1,0.3-0.4,0.6-0.4L20,18.7z
		 M26.5,19.3c0,0.1,0,0.3,0.1,0.4c0.3,0,0.2,0.4,0.5,0.4c0.2-0.1,0-0.2,0.1-0.3c0-0.2-0.3-0.3-0.5-0.4v-0.1
		C26.6,19.2,26.6,19.2,26.5,19.3 M31.1,19.3c-0.2,0-0.5,0.1-0.7,0c-0.1-0.1-0.1,0-0.1,0.1c-0.1,0.1-0.2,0.3-0.4,0.2
		c-0.1-0.1-0.1-0.2-0.2-0.3c0,0.1,0,0.2,0,0.3c-0.2,0.2-0.2,0.4-0.4,0.6s-0.4,0.1-0.6,0.3c0,0.4-0.5,0.3-0.7,0.4l0.1,0.1
		c0.1,0,0.3,0,0.4-0.1c0.3,0.1,0.3-0.3,0.5-0.5c0.2,0,0.3-0.2,0.5-0.1c0.2,0.2,0.2,0.5,0.2,0.8c-0.2,0.2-0.1,0.5-0.2,0.7
		c0,0.3-0.3,0.4-0.3,0.7c-0.1,0.1-0.3,0.1-0.5,0.1c-0.6-0.2-1.3-0.4-2-0.5c-0.1,0-0.1,0.1-0.1,0.2c0.3,0.2,0.7,0.2,1,0.3
		c0.3,0.1,0.5,0.4,0.8,0.3c0.3-0.2,0.8,0.1,1-0.2c0-0.3,0.2-0.5,0.4-0.8h0.1c0.2,0.2,0.2,0.4,0.2,0.6c0.2-0.2,0.4-0.5,0.6-0.8
		c0.5-0.8,1-1.6,1.2-2.5C31.5,19.2,31.3,19.3,31.1,19.3 M20.8,19.3c-0.4,0.6-1,1.1-1.5,1.6c0.9,0.7,1.9,1.2,2.9,1.4
		c0.1-0.2,0-0.5,0.1-0.7s0.3-0.2,0.5-0.1c0.1,0,0.2-0.1,0.1-0.2c-0.2-0.1-0.1-0.3-0.2-0.5c0-0.1,0.1-0.1,0.1-0.2
		c-0.2-0.1,0.1-0.3-0.1-0.4c0.1,0,0.1-0.1,0.2-0.1c-0.5,0.3-1.1-0.1-1.5-0.3C21.2,19.7,20.8,19.6,20.8,19.3 M25.6,20.8
		c0,0.1-0.1,0.2,0,0.2c0.2-0.2,0.6-0.2,0.6-0.5C25.9,20.5,25.7,20.6,25.6,20.8 M26.5,21.4c-0.3,0-0.4,0.2-0.6,0.4
		c-0.2,0.1-0.3-0.2-0.5-0.2l0.1,0.1c0,0.1,0.1,0.2,0,0.2c-0.3,0.3-0.4-0.1-0.7-0.1v0.1c0,0.1,0,0.1-0.1,0.1
		c-0.2-0.3-0.5-0.2-0.7-0.4c-0.1-0.1-0.2,0-0.3,0.1s-0.3,0-0.3,0.2c-0.2,0.1-0.2,0.3-0.4,0.4c-0.3,0-0.4,0.2-0.6,0.2
		c0,0.1,0,0.1,0.1,0.1c0.1,0.1,0.3,0.1,0.5,0.1c0.2-0.4,0.7-0.1,1-0.2c0.2,0,0.1,0.3,0.2,0.4c0.3-0.1,0.6,0.3,0.9,0
		c0-0.4,0.4-0.4,0.7-0.5C26.2,22.3,26.6,22,26.5,21.4L26.5,21.4z M18.6,21.6c-0.5,0.6-1.1,1.2-1.6,1.7c0.3,0,0.4,0.3,0.6,0.4
		c1.2,1,2.8,1.5,4.2,1.9l-0.4-0.2c-0.3-0.3-0.7-0.7-0.7-1.2c0.3-0.1,0.3-0.4,0.4-0.6c0.2-0.3,0.5-0.4,0.9-0.5
		c-0.8,0.3-1.5-0.3-2.2-0.6C19.2,22.2,18.8,22,18.6,21.6 M29.9,23.9l-0.1-0.2c-0.1,0.2-0.2,0.3-0.4,0.5c0,0.1,0,0.3,0.1,0.4
		c0.3,0.1,0.8,0.3,0.8,0.7c-0.1,0.4-0.8,0.7-0.4,1.1c0.1,0.2-0.2,0.3-0.1,0.4l0.1-0.2c0.5-0.4,1-0.7,1.5-1.2h0.1
		c-0.1,0-0.2,0.1-0.3,0c-0.2-0.1-0.3-0.3-0.3-0.5L29.9,23.9z M16.8,24.2L16.8,24.2L16.8,24.2L16.8,24.2z M17,24.6
		c-0.1-0.1-0.2-0.1-0.2-0.3L17,24.6z M17.1,24.6c0,0.2,0.3,0.3,0.2,0.6c-0.1,0.2-0.4,0.2-0.7,0.2c-0.5-0.1-0.8,0.3-1.3,0.3
		c-0.4,0.1-0.5-0.4-0.9-0.3c2.3,2,4.9,3.2,7.9,3.4l0.2,0.2l-0.1-0.3v-2.2l-0.2,0.1C20.4,26.5,18.6,25.8,17.1,24.6 M32.2,26.2V26
		c-0.2,0.5-0.7,0.7-1.1,1.1c-0.5,0.5-1.4,0.6-1.7,1.4c-0.3,0.3-0.4,0.7-0.8,0.8c-0.1,0.4-0.6,0.4-0.8,0.7c-0.7,0.6-1.1-0.4-1.8-0.5
		l-1.3,0.2c-0.4,0-0.9,0.2-1.3,0c0.1,0.8,0.1,1.7,0,2.6l0.2-0.1c3.9-0.2,7.4-1.7,10.3-4.3L32.2,26.2z M14.1,26.1L14.1,26.1l-1.7,1.8
		c2.6,2.2,5.4,3.6,8.7,4.1c0.5,0.1,1.1,0,1.6,0.2L22.6,32v-2.2l0.1-0.1l-0.3,0.1C19.2,29.5,16.4,28.4,14.1,26.1 M23.4,26.7l0.1,0.2
		c0,0.7,0.1,1.4,0,2c0.6-0.2,1.3-0.2,2-0.3c-0.1,0-0.3-0.1-0.4-0.2c-0.4,0-0.6-0.4-0.7-0.7c-0.1-0.2,0.1-0.4,0.2-0.6
		c-0.2-0.3-0.7-0.1-1-0.2C23.6,26.8,23.5,26.7,23.4,26.7"/>
	<path class="st0" d="M38.5,3.2c1.2,1.1,1.7,2.5,2.1,3.9l0.2,0.5c-1.7-1.3-3.3-2.9-4.4-4.7L35,1.5C36.2,2,37.4,2.3,38.5,3.2"/>
	<path class="st0" d="M8,5.3c-0.8,1-1.8,1.6-2.7,2.5c0.5-1,0.5-2.2,1.2-3.2c1-1.7,2.8-2.3,4.5-3C9.7,2.7,8.9,4.1,8,5.3"/>
	<path class="st0" d="M42.7,7.1c0.4,1.7-0.2,3.4,0.2,5.1l0,0C42,10.4,40,9.5,38.6,8c-0.8-0.9-1.1-1.9-1.3-3.1
		c0.8,1.9,2.9,2.3,4.1,3.9c0.4,0.4,0.5,0.9,0.8,1.3l0,0c-0.7-1.5-0.9-3.2-1.4-4.8c-0.2-0.7-0.7-1.4-1.4-1.8
		C41,3.9,42.4,5.6,42.7,7.1"/>
	<path class="st0" d="M6.5,3.9C4.9,5,5,7,4.5,8.7C4.3,9.3,4,9.9,3.9,10.5l0,0c0.3-0.7,0.7-1.4,1.3-2c1.2-1.1,2.9-1.7,3.4-3.3
		c0,2.2-1.9,3.9-3.6,5.1c-0.7,0.6-1.4,1.4-1.8,2.2c0-0.5,0.1-1.1,0-1.7C3,8.9,2.9,6.7,4.2,5.3C4.9,4.6,5.7,4.1,6.5,3.9"/>
	<path class="st0" d="M43.7,7.5c1.4,2,1.8,5.1,0.7,7.3c-0.4,1-0.7,2-0.8,3c-0.1-0.2-0.1-0.4-0.2-0.6c-0.6-2.2-2.7-3.8-3.5-5.9
		c-0.3-0.7-0.5-1.4-0.6-2.1c0.9,1.7,3.2,2.6,3.8,4.4c0.3,0.5,0.2,1.1,0.4,1.6l0.1-0.1c-0.3-1.9-0.2-3.9,0.1-5.8c0-1-0.1-2-0.7-2.8
		C43.3,6.8,43.5,7.2,43.7,7.5"/>
	<path class="st0" d="M3.1,6.9c-1.2,1.9-0.2,4.3-0.3,6.4l-0.2,2.2l0.1,0.1c0.1-0.2,0.1-0.5,0.1-0.8c0.3-1.8,1.8-3,3.2-4.3
		c0.3-0.3,0.5-0.6,0.7-1c-0.1,0.9-0.4,1.8-0.8,2.6c-1,2-3,3.7-3.3,6.1c-0.2-2.2-1.7-3.9-1.5-6.3C1,9.9,1.8,8.4,3.1,6.9L3.1,6.9z"/>
	<path class="st0" d="M45.1,20.2c-0.9,1.2-1.9,2.4-2.7,3.6c0.1-1,0.2-2.2-0.2-3.1c-0.7-2-1.2-4-1.4-6.2v-0.8
		c0.5,2.3,2.7,3.8,2.6,6.3c0,0.6-0.1,1.1-0.3,1.7l0,0l0.1-0.1c0.3-1.2,0.5-2.5,1-3.7c0.7-1.7,1.6-3.3,1.3-5.3
		C46.6,14.9,46.3,18,45.1,20.2"/>
	<path class="st0" d="M2.4,19.5C2.6,20.3,2.7,21.2,3,22h0.1c-0.8-2.4,0.4-4.5,1.6-6.4C5,15.1,5.2,14.5,5.3,14
		c0.1,1.1-0.1,2.3-0.3,3.4c-0.3,1.4-0.7,2.7-1.1,4.1c-0.3,0.9-0.2,1.8-0.1,2.7l-0.1-0.1c-0.9-1.6-2.7-2.9-3.2-4.7
		c-0.4-1.4-0.7-3.1-0.4-4.7c0.1-0.6,0.2-1.2,0.5-1.8C0.1,15.4,1.9,17.2,2.4,19.5"/>
	<path class="st0" d="M41.7,24.1c-0.1,1.1-0.4,2.1-1,3h0.1c0.8-1,1.4-2.1,2.3-3.1c1.4-1.4,2.9-2.8,3.1-4.7c0.5,3.2-1.3,6-3.9,7.8
		c-1.1,0.7-2.2,1.4-3.2,2.2v-0.1c1.6-2.7,0.8-6.3,1.8-9.3l0.4-1C41,20.7,41.8,22.3,41.7,24.1"/>
	<path class="st0" d="M6.6,27.7c0.2,0.6,0.5,1.1,0.8,1.7c-2.4-1.7-5.8-3.2-6.8-6.3c-0.5-1-0.5-2.4-0.4-3.6c0.2,2.7,3.1,4.1,4.5,6.4
		c0.3,0.5,0.6,1,1,1.4c-0.1-0.3-0.3-0.5-0.4-0.8c-0.5-0.9-0.6-2.1-0.5-3.2c0.1-1.4,0.7-2.7,0.5-4.1C6.3,21.8,5.9,25,6.6,27.7"/>
	<path class="st0" d="M38.1,29.8c-0.4,0.7-1,1.4-1.7,2c0.2,0,0.4-0.2,0.6-0.3c1.8-1.8,4.1-2.2,6-3.7c0.8-0.6,1.5-1.4,1.8-2.3
		c-0.4,2.9-3.3,5.6-6,6.5c-1.4,0.4-2.9,0.5-4.3,1c2.3-2,2.2-5.1,3.7-7.4c0.5-0.7,0.9-1.4,1.5-2C38.8,25.5,39.2,27.9,38.1,29.8"/>
	<path class="st0" d="M8.8,27.3c0.8,2,1.1,4.3,3,5.8c-2-0.7-4.4-0.5-6.2-1.7c-2-1.2-3.7-3.3-4.1-5.5c1.4,3.1,4.8,3.3,7.1,5.2
		C9,31.5,9.5,31.8,9.9,32l0,0c-0.5-0.5-1.1-1-1.5-1.6c-1.3-1.9-0.9-4.5-1.9-6.5C7.5,24.9,8.3,26.1,8.8,27.3"/>
	<path class="st0" d="M33.1,33.3c-0.5,0.3-1.1,0.4-1.6,0.6c0.7,0,1.4-0.2,2.1-0.3c2.7-0.4,5.8,0,7.7-2.3c-0.7,1.6-2.5,2.9-4.1,3.5
		c-2.8,1-5.5-0.2-8.2-0.7L28.5,34l0,0c1.3-0.3,2.5-0.7,3.5-1.6c1.5-1.4,2.8-2.9,4.4-4C35.3,30.1,35.1,32.3,33.1,33.3"/>
	<path class="st0" d="M14.2,32.6c1,0.9,2.3,1.3,3.6,1.6c-0.3,0.1-0.7,0.1-1.1,0.2c-2.4,0.6-5,1.5-7.6,0.7c-1.6-0.5-3.3-1.8-4.2-3.4
		c2.2,2.5,5.7,1.7,8.6,2.3c0.4,0.1,0.8,0.2,1.2,0.2c-0.3-0.2-0.8-0.2-1.2-0.4c-2.3-0.8-2.6-3.3-3.8-4.9
		C11.4,29.8,12.7,31.2,14.2,32.6"/>
	<path class="st0" d="M32,35.9c1.8,0.7,4.1,0.5,5.6-0.6c-0.8,1-1.8,1.7-2.9,2.1c-2.5,0.9-5,0-6.9-1.5c-0.8-0.5-1.5-1.2-2.5-1.1
		c-0.4,0-0.7,0-1,0.1c1.9,0.9,3.6,2.1,5.2,3.6c-0.3,0.3-0.6,0.6-0.9,0.9c-1.5-1.6-3.2-3.2-5.1-4.2c-0.4,0-0.7,0.3-1.1,0.5
		c-1.5,1-3.1,2.2-4.2,3.8l-1-0.8c1.6-1.6,3.3-2.8,5.2-3.7c-1.9-0.6-3.1,1-4.5,1.8c-1.7,1.2-4,1.7-6,0.9c-1.1-0.4-2.1-1-2.9-2
		c1.6,1.1,3.9,1.2,5.7,0.5c2.4-1,4.9-2.4,7.8-1.7c0.4,0,0.9,0.5,1.3,0.1c2.1-0.6,4.6-0.2,6.4,0.8L32,35.9z"/>
	<path class="st0" d="M53.6,23.9h4.8c4.3,0,7.1,3,7.1,7.3v0.2c0,4.3-2.8,7.3-7.1,7.3h-4.8V23.9z M56.7,26.7V36h1.7
		c2.3,0,3.9-1.6,3.9-4.6v-0.1c0-2.9-1.6-4.6-3.9-4.6L56.7,26.7L56.7,26.7z"/>
</g>
<polygon class="st0" points="67.1,23.9 67.1,38.7 76.7,38.7 76.7,35.9 70.2,35.9 70.2,32.6 75.9,32.6 75.9,29.9 70.2,29.9 
	70.2,26.7 76.7,26.7 76.7,23.9 "/>
<polygon class="st0" points="86.9,23.9 83.7,34.1 80.6,23.9 77.3,23.9 82.3,38.8 85.1,38.8 90.1,23.9 "/>
<polygon class="st0" points="91.2,23.9 91.2,38.7 100.8,38.7 100.8,35.9 94.2,35.9 94.2,32.6 99.9,32.6 99.9,29.9 94.2,29.9 
	94.2,26.7 100.7,26.7 100.7,23.9 "/>
<polygon class="st0" points="102.4,23.9 102.4,38.7 111.5,38.7 111.5,35.9 105.5,35.9 105.5,23.9 "/>
<g>
	<path class="st0" d="M111.5,31.5v-0.3c0-4.5,2.8-7.6,6.7-7.6s6.7,3.1,6.7,7.5v0.3c0,4.4-2.8,7.6-6.7,7.6
		C114.2,39,111.5,35.9,111.5,31.5 M121.7,31.4v-0.1c0-2.9-1.5-4.8-3.5-4.8c-2.1,0-3.5,1.8-3.5,4.7v0.1c0,2.9,1.5,4.8,3.6,4.8
		S121.7,34.3,121.7,31.4"/>
	<path class="st0" d="M126.6,23.9h4.9c3.3,0,5.4,1.9,5.4,5.1l0,0c0,3.4-2.4,5.1-5.6,5.2h-1.7v4.5h-3.1V23.9H126.6z M131.3,31.5
		c1.6,0,2.5-1,2.5-2.4l0,0c0-1.5-0.9-2.4-2.5-2.4h-1.7v4.8H131.3z"/>
</g>
<polygon class="st0" points="147.9,23.9 144.7,29.9 141.4,23.9 138.1,23.9 138.1,38.7 141.1,38.7 141.1,29.3 144.6,35.4 144.7,35.4 
	148.2,29.2 148.2,38.7 151.2,38.7 151.2,23.9 "/>
<polygon class="st0" points="153.4,23.9 153.4,38.7 163,38.7 163,35.9 156.4,35.9 156.4,32.6 162.1,32.6 162.1,29.9 156.4,29.9 
	156.4,26.7 162.9,26.7 162.9,23.9 "/>
<polygon class="st0" points="173.1,23.9 173.1,32.5 167.5,23.9 164.6,23.9 164.6,38.7 167.7,38.7 167.7,29.8 173.5,38.7 176.2,38.7 
	176.2,23.9 "/>
<polygon class="st0" points="177.4,23.9 177.4,26.7 181.2,26.7 181.2,38.7 184.2,38.7 184.2,26.7 188,26.7 188,23.9 "/>
<g>
	<path class="st0" d="M52.5,16.9l2-2.5c1.1,1,2.4,1.8,4,1.8c1.3,0,2.1-0.6,2.1-1.6l0,0c0-0.8-0.5-1.3-2.8-2.2
		c-2.9-1.1-4.7-2.2-4.7-5l0,0c0-2.8,2.2-4.8,5.3-4.8c1.9,0,3.8,0.7,5.3,2l-1.9,2.6c-1-0.8-2.2-1.5-3.5-1.5c-1.2,0-1.9,0.6-1.9,1.4
		l0,0c0,0.9,0.6,1.4,3.1,2.4c2.8,1.1,4.4,2.3,4.4,4.9l0,0c0,3-2.3,4.9-5.5,4.9C56.5,19.3,54.3,18.6,52.5,16.9"/>
	<path class="st0" d="M65.4,12.7v-10h3.4v10c0,2.3,1.1,3.4,2.8,3.4s2.8-1.1,2.8-3.4v-10h3.3v9.9c0,4.5-2.5,6.6-6.2,6.6
		C67.8,19.3,65.4,17.1,65.4,12.7"/>
	<path class="st0" d="M78.8,16.9l2-2.5c1.1,1,2.4,1.8,4,1.8c1.3,0,2.1-0.6,2.1-1.6l0,0c0-0.8-0.5-1.3-2.8-2.2
		c-2.9-1.1-4.7-2.2-4.7-5l0,0c0-2.8,2.2-4.8,5.3-4.8c1.9,0,3.8,0.7,5.3,2l-1.9,2.6c-1-0.8-2.2-1.5-3.5-1.5c-1.2,0-1.9,0.6-1.9,1.4
		l0,0c0,0.9,0.6,1.4,3.1,2.4c2.8,1.1,4.4,2.3,4.4,4.9l0,0c0,3-2.3,4.9-5.5,4.9C82.8,19.3,80.6,18.6,78.8,16.9"/>
</g>
<polygon class="st0" points="94.7,5.9 90.6,5.9 90.6,2.8 102.1,2.8 102.1,5.9 98,5.9 98,19.1 94.7,19.1 "/>
<path class="st0" d="M106.5,2.7h3.2l5.8,16.4H112l-1.2-3.5h-5.6l-1.2,3.5h-3.4L106.5,2.7z M109.8,12.6L108,7.3l-1.8,5.3H109.8z"/>
<rect x="116.8" y="2.8" class="st0" width="3.4" height="16.3"/>
<polygon class="st0" points="122.7,2.8 125.8,2.8 132,12.3 132,2.8 135.3,2.8 135.3,19.1 132.4,19.1 126,9.2 126,19.1 122.7,19.1 
	"/>
<path class="st0" d="M142.3,2.7h3.2l5.8,16.4h-3.5l-1.2-3.5H141l-1.2,3.5h-3.4L142.3,2.7z M145.6,12.6l-1.8-5.3l-1.8,5.3H145.6z"/>
<g>
	<path class="st0" d="M152.5,2.8h6c1.8,0,3.3,0.5,4.3,1.4c0.7,0.7,1.1,1.6,1.1,2.8v0.1c0,1.9-1,2.9-2.2,3.6c1.7,0.7,2.9,1.7,2.9,3.9
		v0.1c0,2.9-2.3,4.5-5.9,4.5h-6.2L152.5,2.8L152.5,2.8z M160.6,7.6c0-1.2-0.8-1.8-2.3-1.8h-2.5v3.7h2.3
		C159.6,9.4,160.6,8.8,160.6,7.6L160.6,7.6z M158.7,12.3h-3v3.8h3c1.5,0,2.5-0.7,2.5-1.9l0,0C161.3,13,160.4,12.3,158.7,12.3"/>
</g>
<polygon class="st0" points="166.2,2.8 169.5,2.8 169.5,16 176.1,16 176.1,19.1 166.2,19.1 "/>
<polygon class="st0" points="177.5,2.8 188,2.8 188,5.8 180.9,5.8 180.9,9.4 187.1,9.4 187.1,12.4 180.9,12.4 180.9,16 188.1,16 
	188.1,19.1 177.5,19.1 "/>
<g>
	<path class="st0" d="M214.4,19h15.8c-0.3,12.7-7.3,19.1-16.7,19.1c-10.1,0-16.7-8.6-16.7-17.7c0-9.2,6.5-17.7,16.7-17.7
		c11.2,0,14.3,7,15.6,10.6l-7.1,0.5c-1.2-3-3.7-5-8.5-5c-5.4,0-9.6,4.4-9.6,11.6c0,6.1,3.9,11.6,10,11.6c5.5,0,8.1-3.9,8.6-7.1h-8.1
		V19z"/>
</g>
<polygon class="st0" points="297.7,3.3 304.5,3.3 304.5,31.1 317.6,31.1 317.6,37.4 297.7,37.4 "/>
<g>
	<path class="st0" d="M336.7,12.3c0-2.4-2.3-3.8-5-3.8c-3.4,0-5.4,1.5-5.4,3.8c0,2.4,2.3,3.5,4,4l6.3,2c4.5,1.5,7.8,4.1,7.8,9.3
		c0,4.2-3,10.4-12.4,10.4c-11.8,0-12.9-7.7-12.9-10.7l6.8-0.1c0,3.6,2.9,5,6.2,5c2.3,0,5.6-1.1,5.6-3.8c0-1.8-0.8-2.8-4.1-4
		l-7.4-2.7c-3.8-1.4-6.4-4.7-6.4-8.5c0-4.4,3-10.6,11.8-10.6c10.5,0,12.2,7,12.2,9.5L336.7,12.3z"/>
	<path class="st0" d="M241.1,16.1c0.4-0.7,0.9-1.4,1.5-1.9l-4.9-5.4c-1.2,1.2-2.3,2.6-3.1,4.1L241.1,16.1z"/>
	<path class="st0" d="M253.2,12.3c0.8,0.3,1.4,0.8,2.1,1.3l5-5.4c-1.3-1.1-2.8-2.1-4.4-2.7L253.2,12.3z"/>
	<path class="st0" d="M264.6,13.9l-6.6,3.3c0.3,0.7,0.5,1.5,0.7,2.3l7.3-0.7C265.8,17.1,265.3,15.5,264.6,13.9"/>
	<path class="st0" d="M257.5,16.3l6.6-3.3c-0.8-1.5-1.9-2.9-3.1-4.1l-5,5.4C256.6,14.9,257.1,15.6,257.5,16.3"/>
	<path class="st0" d="M239.8,20.9c0-0.1,0-0.3,0-0.4l-7.3-0.7c0,0.4,0,0.7,0,1.1c0,1.4,0.2,2.8,0.5,4.1l7.1-2
		C239.8,22.3,239.8,21.6,239.8,20.9"/>
	<path class="st0" d="M256.6,27c-0.5,0.6-1.1,1.2-1.8,1.7l3.9,6.3c1.4-1,2.7-2.2,3.8-3.5L256.6,27z"/>
	<path class="st0" d="M258.8,20.9c0,0.7-0.1,1.4-0.2,2l7.1,2c0.3-1.3,0.5-2.7,0.5-4.1c0-0.3,0-0.7,0-1l-7.3,0.7
		C258.8,20.7,258.8,20.8,258.8,20.9"/>
	<path class="st0" d="M242,27.1l-5.9,4.4c1.1,1.3,2.4,2.5,3.8,3.5l3.9-6.3C243.2,28.3,242.6,27.7,242,27.1"/>
	<path class="st0" d="M239.9,19.4c0.1-0.8,0.4-1.6,0.7-2.4l-6.6-3.3c-0.7,1.5-1.2,3.2-1.5,5L239.9,19.4z"/>
	<path class="st0" d="M257.8,35.5l-3.9-6.2c-0.7,0.4-1.5,0.7-2.3,0.9l1.4,7.2C254.7,37,256.3,36.3,257.8,35.5"/>
	<path class="st0" d="M258.3,24c-0.3,0.8-0.6,1.5-1,2.1l5.9,4.4c1-1.4,1.7-2.9,2.2-4.5L258.3,24z"/>
	<path class="st0" d="M250.6,30.3c-0.4,0.1-0.9,0.1-1.4,0.1c-0.4,0-0.7,0-1.1-0.1l-1.4,7.2c0.8,0.1,1.6,0.2,2.5,0.2s1.8-0.1,2.7-0.2
		L250.6,30.3z"/>
	<path class="st0" d="M249.9,11.5c0.8,0.1,1.6,0.2,2.3,0.5l2.6-6.9c-1.6-0.6-3.2-0.9-5-0.9v7.3H249.9z"/>
	<path class="st0" d="M247.1,30.2c-0.8-0.2-1.6-0.5-2.3-0.9l-3.9,6.3c1.5,0.9,3.1,1.5,4.8,1.9L247.1,30.2z"/>
	<path class="st0" d="M246.4,11.9c0.8-0.2,1.6-0.4,2.4-0.4V4.1c-1.8,0-3.5,0.4-5.1,0.9L246.4,11.9z"/>
	<path class="st0" d="M241.4,26.3c-0.5-0.7-0.8-1.4-1.1-2.2l-7.1,2c0.5,1.7,1.3,3.3,2.3,4.7L241.4,26.3z"/>
	<path class="st0" d="M243.4,13.5c0.6-0.5,1.3-0.9,2-1.2l-2.7-6.9c-1.6,0.7-3,1.6-4.3,2.7L243.4,13.5z"/>
</g>
<path class="st0" d="M286.5,30.2h-12.7l-2.3,7.2H264l12.6-34.6h7.3l12.4,34.6h-7.6L286.5,30.2z M280.2,11.2L280.2,11.2l-4.5,13.4
	h8.9L280.2,11.2z"/>
</svg>
